<?xml version="1.0" encoding="UTF-8"?>
<svg version="1.1" xmlns="http://www.w3.org/2000/svg" width="32" height="32">
<path d="M0 0 C10.56 0 21.12 0 32 0 C32 10.56 32 21.12 32 32 C21.44 32 10.88 32 0 32 C0 21.44 0 10.88 0 0 Z " fill="#AED1D8" transform="translate(0,0)"/>
<path d="M0 0 C2.64 0 5.28 0 8 0 C8.33 1.98 8.66 3.96 9 6 C9.99 6 10.98 6 12 6 C12 8.64 12 11.28 12 14 C11.01 14.33 10.02 14.66 9 15 C8.67 16.65 8.34 18.3 8 20 C5.36 20 2.72 20 0 20 C-0.33 18.35 -0.66 16.7 -1 15 C-1.99 14.67 -2.98 14.34 -4 14 C-4 11.36 -4 8.72 -4 6 C-2.68 5.67 -1.36 5.34 0 5 C0 3.35 0 1.7 0 0 Z " fill="#8EAAB0" transform="translate(12,6)"/>
<path d="M0 0 C0.99 0 1.98 0 3 0 C3.33 1.98 3.66 3.96 4 6 C4.99 6 5.98 6 7 6 C7 6.99 7 7.98 7 9 C4.69 9 2.38 9 0 9 C0 6.03 0 3.06 0 0 Z " fill="#1E1E1F" transform="translate(17,6)"/>
<path d="M0 0 C0.99 0 1.98 0 3 0 C3 2.97 3 5.94 3 9 C0.69 9 -1.62 9 -4 9 C-4 8.01 -4 7.02 -4 6 C-2.68 5.67 -1.36 5.34 0 5 C0 3.35 0 1.7 0 0 Z " fill="#1D1E1E" transform="translate(12,6)"/>
<path d="M0 0 C2.31 0 4.62 0 7 0 C7 0.99 7 1.98 7 3 C6.01 3.33 5.02 3.66 4 4 C3.67 5.65 3.34 7.3 3 9 C2.01 9 1.02 9 0 9 C0 6.03 0 3.06 0 0 Z " fill="#1E1E1E" transform="translate(17,17)"/>
<path d="M0 0 C2.31 0 4.62 0 7 0 C7 2.97 7 5.94 7 9 C6.01 9 5.02 9 4 9 C3.67 7.35 3.34 5.7 3 4 C2.01 3.67 1.02 3.34 0 3 C0 2.01 0 1.02 0 0 Z " fill="#1E1E1E" transform="translate(8,17)"/>
</svg>
