<svg width="61" height="20" viewBox="0 0 61 20" fill="none" xmlns="http://www.w3.org/2000/svg">
<path d="M15.4153 2.80957C15.4153 3.39051 15.8926 3.86404 16.4788 3.86426H19.9319C20.9216 3.86426 21.8243 4.45498 22.2297 5.36816L24.8899 11.3379L27.3831 5.41602C27.7798 4.47455 28.691 3.86734 29.7024 3.86719H32.1028V0H34.9866V2.80957C34.9866 3.39064 35.4647 3.86426 36.051 3.86426H38.0198V6.22363H34.9895V11.791L34.9846 11.7881C34.9846 12.9219 35.2773 13.2148 36.4065 13.2148H37.9172V15.6309H35.094C33.1364 15.6309 32.1008 14.591 32.1008 12.627V6.22363H30.6448C30.3179 6.22363 30.0756 6.35711 29.9622 6.60156L26.2415 14.6523L26.2297 15.624C26.2297 17.7431 25.083 19.0605 23.2366 19.0605H18.4456V16.6006H22.0686C23.1716 16.6006 23.4895 16.5502 23.4895 15.3945V14.792L19.6096 6.5957C19.4963 6.35764 19.2566 6.22371 18.9319 6.22363H15.4153V11.791C15.4154 12.9243 15.7075 13.2167 16.8362 13.2168H18.2649V15.6338H15.5247C13.5672 15.6338 12.5316 14.5936 12.5315 12.6299V0H15.4153V2.80957ZM5.91919 0C9.18895 0 10.8836 1.30187 11.093 3.97559H8.06274C7.91875 2.79398 7.2032 2.21777 5.88013 2.21777C4.64649 2.21784 3.78558 2.9601 3.7854 4.12207C3.7854 5.28418 4.2757 5.81562 5.65747 6.14551L5.65552 6.14746L7.46509 6.58691C10.1268 7.24231 11.3147 8.55321 11.3147 10.834C11.3146 13.8858 9.24151 15.6357 5.88013 15.6357C2.51874 15.6357 0.60956 14.0905 0.356689 11.1631H3.26685C3.45214 12.6333 4.36952 13.3788 5.88013 13.3789C7.39084 13.3789 8.36743 12.5591 8.36743 11.292C8.36728 10.0973 7.76341 9.49673 6.21802 9.14941L4.39185 8.72949C2.76996 8.34062 0.838135 7.28764 0.838135 4.46289C0.838313 1.79354 2.88065 0.000137532 5.91919 0ZM53.2434 0V5.41992L53.4368 5.18164H53.4348C54.1084 4.35811 54.7934 3.87988 56.3127 3.87988C58.8806 3.87998 60.3567 5.49685 60.3567 8.31934V15.6338H57.4719V8.67969C57.4719 7.80606 57.2238 7.11147 56.7532 6.66797C56.3739 6.30976 55.8636 6.14091 55.2795 6.17578C53.8909 6.26317 53.2434 7.34477 53.2434 9.58398V15.6338H50.3586V0H53.2434ZM43.9836 3.87793C47.0725 3.87795 48.9121 5.31288 49.176 7.91895H46.3157C46.0998 6.81161 45.3852 6.29592 44.0774 6.2959H43.8879C42.1703 6.2959 41.058 7.65471 41.0579 9.75391C41.0579 11.8534 42.168 13.2129 43.8879 13.2129H44.0774C45.3851 13.2129 46.0976 12.6971 46.3157 11.5898H49.176C48.9121 14.198 47.0724 15.6308 43.9836 15.6309C40.7115 15.6309 38.427 13.2144 38.427 9.75391C38.4272 6.29366 40.7117 3.87793 43.9836 3.87793Z" fill="black"/>
</svg>
